# xmcd
#
# Track frame offsets:
#	182
#	14012
#	25860
#	38632
#	51530
#	63967
#	76900
#	96027
#	107685
#	121450
#	133790
#	143937
#	158392
#	171807
#
# Disc length: 2468
#
# Revision: 2
# Processed by: cddbd v1.5.1PL0 Copyright (c) Steve Scherf et al.
# Submitted via: audiograbber 1.83.01
# Normalized: r1:DSETVAR1
#
DISCID=b509a20e
DTITLE=Various Artist - Blues Time CD2
DYEAR=1994
DGENRE=Blues
TTITLE0=Robert Nighthawk - Black Angel Blues
TTITLE1=Washboard Sam - Diggin' My Potatoes
TTITLE2=Muddy Waters - (I'm Your) Hoochie Coochie Man
TTITLE3=Willie Mabon - Seventh Son
TTITLE4=Bo Diddley - I'm A Man
TTITLE5=J.B. Lenoir - Eisenhower Blues
TTITLE6=Etta James - Baby What You Want Me To Do
TTITLE7=Sonny Boy Williamson - Don't Start Me Talkin'
TTITLE8=Howlin' Wolf - Smokestack Lightnin'
TTITLE9=Otis Spann - I'm Leaving You
TTITLE10=B.B. King - Don't Keep Me Waiting
TTITLE11=Otis Rush - So Many Roads, So Many Trains
TTITLE12=Koko Taylor - Wang Dang Doodle
TTITLE13=John Lee Hooker - One Bourbon, One scotch, One Beer
EXTD=
EXTT0=
EXTT1=
EXTT2=
EXTT3=
EXTT4=
EXTT5=
EXTT6=
EXTT7=
EXTT8=
EXTT9=
EXTT10=
EXTT11=
EXTT12=
EXTT13=
PLAYORDER=
